# xmcd
#
# Track frame offsets: 
#        150
#        17437
#        34725
#        44512
#        58162
#        68475
#        85200
#        96262
#        110287
#        122850
#        134550
#        148612
#        161587
#        175725
#        190837
#        206062
#
# Disc length: 2897 seconds
#
# Revision: 0
# Processed by: cddbd v1.5.2PL0 Copyright (c) Steve Scherf et al.
# Submitted via: ExactAudioCopy v0.99pb1
#
DISCID=e10b4f10
DTITLE=Rosie Flores - A Honkey Tonk Reprise
DYEAR=1996
DGENRE=Country
TTITLE0=Crying Over You
TTITLE1=Midnight To Moonlight
TTITLE2=Lovin' In Vain
TTITLE3=God May Forgive You (But I Won't)
TTITLE4=Heart Beats To A Different Drum
TTITLE5=Blue Side Of Town
TTITLE6=Somebody Loses, Somebody Wins
TTITLE7=Heartbreak Train
TTITLE8=Turn Around
TTITLE9=I Gotta Know
TTITLE10=End Of The World
TTITLE11=Truck Driver Blues
TTITLE12=One Track Memory
TTITLE13=He Cares
TTITLE14=Woman Walk Out The Door
TTITLE15=I'm Walking
EXTD=
EXTT0=
EXTT1=
EXTT2=
EXTT3=
EXTT4=
EXTT5=
EXTT6=
EXTT7=
EXTT8=
EXTT9=
EXTT10=
EXTT11=
EXTT12=
EXTT13=
EXTT14=
EXTT15=
PLAYORDER=
